<svg width="24" height="24" viewBox="0 0 24 24" fill="none" xmlns="http://www.w3.org/2000/svg">
<path d="M8.41978 4.89744L2.55077 15.0513C1.02549 17.6838 2.84919 21 5.80028 21H17.6046C20.5557 21 22.3794 17.6838 20.8541 15.0513L14.952 4.89744C13.493 2.36752 9.9119 2.36752 8.41978 4.89744ZM14.2556 5.37607L20.1578 15.5299C20.9868 16.9658 19.992 18.812 18.3673 18.812H6.52976C4.905 18.812 3.91026 16.9658 4.73921 15.5299L10.6414 5.37607C11.4703 3.97436 13.4267 3.97436 14.2556 5.37607Z" fill="#26AD60"/>
<path d="M11.9011 7.49607L7.9884 14.2311C7.39155 15.2568 8.12104 16.5901 9.28157 16.5901H17.1401C18.3006 16.5901 19.0301 15.2568 18.4333 14.2311L14.4874 7.49607C13.9237 6.47043 12.4979 6.47043 11.9011 7.49607ZM14.4543 9.10291L17.0075 13.5132C17.2396 13.9234 16.9743 14.4362 16.5101 14.4362H11.4037C10.9395 14.4362 10.6742 13.9234 10.9063 13.5132L13.4595 9.10291C13.6916 8.69265 14.2553 8.69265 14.4543 9.10291Z" fill="#26AD60"/>
</svg>
